<?xml version="1.0" standalone="no"?>
<!DOCTYPE svg PUBLIC "-//W3C//DTD SVG 1.1//EN" "http://www.w3.org/Graphics/SVG/1.1/DTD/svg11.dtd" >
<!--
2013-9-30: Created.
-->
<svg>
<metadata>
Created by iconfont
</metadata>
<defs>

<font id="iconfont" horiz-adv-x="1024" >
  <font-face
    font-family="iconfont"
    font-weight="500"
    font-stretch="normal"
    units-per-em="1024"
    ascent="896"
    descent="-128"
  />
    <missing-glyph />
    
    <glyph glyph-name="x" unicode="x" horiz-adv-x="1001"
d="M281 543q-27 -1 -53 -1h-83q-18 0 -36.5 -6t-32.5 -18.5t-23 -32t-9 -45.5v-76h912v41q0 16 -0.5 30t-0.5 18q0 13 -5 29t-17 29.5t-31.5 22.5t-49.5 9h-133v-97h-438v97zM955 310v-52q0 -23 0.5 -52t0.5 -58t-10.5 -47.5t-26 -30t-33 -16t-31.5 -4.5q-14 -1 -29.5 -0.5
t-29.5 0.5h-32l-45 128h-439l-44 -128h-29h-34q-20 0 -45 1q-25 0 -41 9.5t-25.5 23t-13.5 29.5t-4 30v167h911zM163 247q-12 0 -21 -8.5t-9 -21.5t9 -21.5t21 -8.5q13 0 22 8.5t9 21.5t-9 21.5t-22 8.5zM316 123q-8 -26 -14 -48q-5 -19 -10.5 -37t-7.5 -25t-3 -15t1 -14.5
t9.5 -10.5t21.5 -4h37h67h81h80h64h36q23 0 34 12t2 38q-5 13 -9.5 30.5t-9.5 34.5q-5 19 -11 39h-368zM336 498v228q0 11 2.5 23t10 21.5t20.5 15.5t34 6h188q31 0 51.5 -14.5t20.5 -52.5v-227h-327z" />
    

    
    <glyph glyph-name="yaoqing" unicode="&#58947;" d="M512 752.207c-255.862 0-464.207-208.346-464.207-464.207s208.346-467.861 467.861-467.861 464.207 208.346 464.207 467.861c0 255.862-211.999 464.207-467.861 464.207zM815.378 189.31h-226.621v-226.621h-149.861v226.621h-226.621v149.861h226.621v226.621h149.861v-226.621h226.621v-149.861z"  horiz-adv-x="1024" />

    
    <glyph glyph-name="jinlingyingcaiwangtubiao18" unicode="&#59157;" d="M839.68 466.33c-70.733 0-128.256 57.549-128.256 128.256s57.523 128.256 128.256 128.256c70.733 0 128.282-57.549 128.282-128.256s-57.574-128.256-128.282-128.256zM658.918-152.090c-70.733 0-128.256 57.549-128.256 128.256s57.523 128.256 128.256 128.256 128.282-57.549 128.282-128.256c0-70.707-57.549-128.256-128.282-128.256zM179.072 193.331c-70.733 0-128.256 57.549-128.256 128.256 0 70.707 57.523 128.256 128.256 128.256s128.256-57.549 128.256-128.256c0-70.733-57.523-128.256-128.256-128.256zM279.629 351.565c-7.757 0-15.053 4.736-17.946 12.39-3.738 9.907 1.229 20.992 11.162 24.755l445.568 168.806c9.779 3.738 20.992-1.229 24.755-11.162 3.738-9.907-1.229-20.992-11.162-24.755l-445.568-168.806c-2.227-0.819-4.531-1.229-6.81-1.229zM575.309 26.573c-3.738 0-7.526 1.101-10.854 3.379l-295.706 203.469c-8.755 6.016-10.957 17.971-4.941 26.701s17.92 10.957 26.701 4.915l295.706-203.469c8.755-6.016 10.957-17.971 4.941-26.701-3.738-5.402-9.728-8.294-15.846-8.294z"  horiz-adv-x="1024" />

    
    <glyph glyph-name="duanxin" unicode="&#58908;" d="M946.968068 730.848613 75.787592 730.848613c-41.857317 0-75.766614-33.846876-75.766614-75.703169l0-587.03495c0-41.856293 33.909297-75.824943 75.766614-75.824943l871.181499 0c41.789779 0 75.766614 33.967626 75.766614 75.824943L1022.735705 655.145443C1022.734682 697.001737 988.757846 730.848613 946.968068 730.848613L946.968068 730.848613zM974.872604 9.595798 643.05022 340.310965c-38.306444-31.004131-73.890894-55.163367-102.829993-66.661236-15.633049-6.200212-51.613518-6.326079-67.179029 0-27.130917 10.988262-60.072167 33.592073-95.534843 62.786998L51.756269 14.761448l-20.992103 21.314445 323.94088 319.743278C209.883683 482.162694 35.866371 697.390593 35.866371 697.390593l21.187555 16.534582c0 0 279.5693-337.955058 415.018202-407.197072 15.438621-7.880481 53.872978-7.880481 69.244061 0 141.526317 73.379241 434.007695 407.197072 434.007695 407.197072l16.533558-16.534582c0 0-177.372733-211.220632-325.811484-337.961198l329.885266-328.780095L974.872604 9.595798 974.872604 9.595798zM974.872604 9.595798"  horiz-adv-x="1024" />

    
    <glyph glyph-name="icon05" unicode="&#58900;" d="M717.706035 640.605286l0 67.601654-347.710236 0 0-67.601654-108.247376 0L261.748423 495.546515c0-59.69252 48.554856-108.260679 108.238167-108.260679 6.786567 0 13.408381 0.711198 19.84293 1.929955 21.349237-40.760332 58.371432-71.928193 103.040794-85.644589 3.294023-20.591991 18.702967-37.08564 38.715767-41.962717 0 0-11.079336-44.23241-11.079336-69.032236 0-20.566408-35.536354-85.111446-35.347043-86.178755l-28.686343 0-62.406329-62.419631 299.56675 0-62.427818 62.419631L602.532923 106.397494c0.191358 1.067308-35.344996 65.611324-35.344996 86.178755 0 24.799826-11.079336 69.032236-11.079336 69.032236 20.011776 4.877077 35.421744 21.370727 38.714743 41.962717 44.667316 13.70821 81.686441 44.884256 103.036701 85.644589 6.438643-1.218758 13.05534-1.929955 19.838837-1.929955 59.684334 0 108.247376 48.568159 108.247376 108.260679L825.946248 640.605286 717.706035 640.605286zM369.987612 405.726837c-49.519834 0-89.818655 40.286542-89.818655 89.819678L280.168957 622.180658l89.826841 0 0-152.476717c0-22.285562 4.343935-43.503816 11.984962-63.079664C378.048195 406.082948 374.065488 405.726837 369.987612 405.726837zM807.52162 495.546515c0-49.533137-40.293705-89.819678-89.822748-89.819678-4.069689 0-8.05342 0.356111-11.985986 0.898463 7.642051 19.575848 11.993149 40.794102 11.993149 63.079664L717.706035 622.180658l89.815585 0L807.52162 495.546515z"  horiz-adv-x="1024" />

    
    <glyph glyph-name="yaoqing1" unicode="&#58889;" d="M263.134477 545.135612c0-27.083791 5.38565-54.160419 15.745581-79.182252 10.366071-25.021833 25.70233-47.975569 44.854491-67.124659 19.153184-19.152161 42.102826-34.487397 67.125683-44.853468 25.02081-10.366071 52.096414-15.750698 79.180205-15.750698s54.158372 5.384626 79.179182 15.750698c25.022856 10.366071 47.973522 25.701307 67.124659 44.853468 19.15523 19.149091 34.490466 42.102826 44.855514 67.124659 10.358908 25.021833 15.747628 52.098461 15.747628 79.182252 0 27.084814-5.38872 54.154279-15.747628 79.177136-10.365048 25.02695-25.700284 47.975569-44.855514 67.129776-19.151137 19.147044-42.101803 34.48228-67.124659 44.849374-25.02081 10.366071-52.096414 15.750698-79.179182 15.750698s-54.159396-5.384626-79.180205-15.750698c-25.022856-10.367094-47.972499-25.701307-67.125683-44.849374-19.152161-19.154207-34.48842-42.102826-44.854491-67.129776C268.519103 599.289891 263.134477 572.220426 263.134477 545.135612L263.134477 545.135612zM263.134477 545.135612M632.871663 147.757957c0 64.676916 31.562793 121.973762 80.115505 157.35655 0.033769 0.022513 0.033769 0.076748 0 0.10233-25.251053 20.135556-53.056274 37.210409-82.855914 50.639229-0.025583 0.011256-0.050142 0.005117-0.069585-0.00921-43.180365-36.540145-99.023096-58.591326-160.022257-58.591326-61.000184 0-116.842915 22.051181-160.02328 58.591326-0.020466 0.020466-0.044002 0.020466-0.068561 0.00921C185.516857 299.777975 95.787409 180.336891 81.884798 38.644058c-0.00614-0.039909 0.027629-0.072655 0.063445-0.072655l584.308718 0c0.054235 0 0.081864 0.059352 0.054235 0.103354C645.207595 69.78525 632.871663 107.332326 632.871663 147.757957L632.871663 147.757957zM632.871663 147.757957M827.471367 301.390702c-84.844194 0-153.631722-68.781389-153.631722-153.632746 0-84.84931 68.787528-153.630699 153.631722-153.630699 84.85238 0 153.631722 68.781389 153.631722 153.630699C981.10309 232.609314 912.323748 301.390702 827.471367 301.390702L827.471367 301.390702zM906.785626 125.224799l-56.713563 0c-0.035816 0-0.065491-0.023536-0.065491-0.063445l0-56.715609c0-11.713763-8.708318-21.903825-20.371939-23.002854-13.353096-1.266851-24.691306 9.318208-24.691306 22.426734l0 57.29173c0 0.033769-0.029676 0.063445-0.062422 0.063445l-56.715609 0c-11.719902 0-21.904849 8.709342-23.010017 20.375009-1.260711 13.351049 9.325371 24.689259 22.432874 24.689259l57.292753 0c0.031722 0 0.062422 0.028653 0.062422 0.068561l0 56.714586c0 11.714786 8.708318 21.903825 20.369892 23.003877 13.357189 1.263781 24.693353-9.324347 24.693353-22.427757l0-57.290706c0-0.034792 0.029676-0.063445 0.065491-0.063445l57.290706 0c13.105456 0 23.691538-11.343327 22.430827-24.694376C928.690474 133.934141 918.499388 125.224799 906.785626 125.224799L906.785626 125.224799zM906.785626 125.224799"  horiz-adv-x="1024" />

    
    <glyph glyph-name="dianhua" unicode="&#58904;" d="M500.352 247.904c-44.256 43.136-94.656 100.384-137.056 163.648-29.76 44.32-55.456 90.368-22.144 118.144l-195.36 232.96C110.976 726.56 24.992 547.424 294.72 217.216c284.224-348.032 492.288-297.728 530.272-264.832l-190.464 227.488C602.656 153.376 567.328 182.656 500.352 247.904zM911.424 66.816l0 0.16c0 0-148.64 177.184-148.736 177.248-11.776 14.048-32.448 15.648-46.464 4.128l-64.512-53.792 190.976-228.096c0 0 64.576 53.6 64.512 53.696l0.16 0.096C922.144 32.576 922.656 53.312 911.424 66.816zM423.328 597.984l0 0.16c14.784 12.352 15.36 33.056 4.192 46.432l0.032 0.224c0 0-152.928 182.336-153.024 182.368-11.744 14.112-32.48 15.68-46.432 4.16L163.584 777.472l195.2-233.152C358.784 544.32 423.328 597.856 423.328 597.984z"  horiz-adv-x="1024" />

    
    <glyph glyph-name="zuoyousanjiao" unicode="&#58921;" d="M161.66396 620.690724l350.318644 1.068332 352.151385-3.109828c21.406542 0 40.22412-1.158383 46.476521-5.945409 15.095813-11.55722 13.446243-35.162848 0-48.549739L537.873274 156.013519c-7.104815-7.135514-16.587793-10.18599-25.919323-9.727549-9.333576-0.459464-18.786878 2.592035-25.922393 9.727549L113.295346 564.153056c-13.415544 13.386892-14.879895 36.776601 0 48.518017C120.218012 618.130412 132.266419 620.690724 161.66396 620.690724z"  horiz-adv-x="1024" />

    
    <glyph glyph-name="dongtaixiantiao" unicode="&#59019;" d="M783.516904 796.55101c73.465199 0 133.586484-63.85533 133.586484-143.258775l0-473.664903c0-79.402421-60.121286-143.258775-133.586484-143.258775L240.681618 36.368558c-73.465199 0-133.586484 63.85533-133.586484 143.258775L107.095133 653.292236c0 79.402421 60.121286 143.258775 133.586484 143.258775L783.516904 796.55101zM783.516904 839.555453 240.681618 839.555453c-97.813746 0-176.589904-83.669608-176.589904-186.263218l0-473.664903c0-102.59361 78.775134-186.263218 176.589904-186.263218l542.834262 0c97.813746 0 176.589904 83.669608 176.589904 186.263218L960.105784 653.292236C960.106808 755.885845 881.331673 839.555453 783.516904 839.555453zM802.867624 197.798181 221.273593 197.798181c-21.376866 0-38.757722 17.379832-38.757722 38.757722 0 21.37789 17.379832 38.811957 38.757722 38.811957l581.594031 0c21.37789 0 38.811957-17.379832 38.811957-38.811957C841.680605 215.179037 824.246537 197.798181 802.867624 197.798181zM260.087597 673.976324c42.811038 0 77.517491-34.707476 77.517491-77.570703 0-42.86425-34.706453-77.517491-77.517491-77.517491-42.862203 0-77.570703 34.707476-77.570703 77.570703C182.516894 639.323083 217.223347 673.976324 260.087597 673.976324zM434.528558 635.16539 570.210773 635.16539c21.37789 0 38.811957-17.379832 38.811957-38.757722 0-21.432125-17.379832-38.811957-38.811957-38.811957L434.528558 557.59571c-21.376866 0-38.757722 17.378809-38.757722 38.811957C395.769812 617.839793 413.149645 635.16539 434.528558 635.16539zM802.867624 352.886375 221.273593 352.886375c-21.376866 0-38.757722 17.327644-38.757722 38.757722 0 21.430078 17.379832 38.811957 38.757722 38.811957l581.594031 0c21.37789 0 38.811957-17.379832 38.811957-38.811957C841.680605 370.211972 824.246537 352.886375 802.867624 352.886375z"  horiz-adv-x="1024" />

    
    <glyph glyph-name="fenxiang" unicode="&#58920;" d="M769.714 306.453c-51.754 0-97.702-24.851-126.571-63.269L394.479 367.941c3.93 13.798 6.034 28.364 6.034 43.424 0 16.496-2.527 32.399-7.211 47.35l247.724 124.288c28.71-40.052 75.647-66.151 128.687-66.151 87.388 0 158.229 70.84 158.229 158.229 0 87.388-70.841 158.229-158.229 158.229-87.389 0-158.229-70.841-158.229-158.229 0-6.046 0.352-12.009 1.011-17.88L351.22 526.116c-28.371 26.943-66.723 43.479-108.938 43.479-87.388 0-158.229-70.84-158.229-158.229s70.84-158.229 158.229-158.229c43.752 0 83.354 17.758 111.997 46.459l258.676-129.779c-0.964-7.062-1.474-14.266-1.474-21.592 0-87.389 70.84-158.229 158.229-158.229s158.229 70.84 158.229 158.229C927.938 235.612 857.103 306.453 769.714 306.453L769.714 306.453z"  horiz-adv-x="1024" />

    
    <glyph glyph-name="wode-copy" unicode="&#58922;" d="M500.081 381.368c-128.048 0-232.215 101.703-232.215 226.707 0 125.003 104.168 226.702 232.215 226.702 128.046 0 232.214-101.7 232.214-226.702 0-125.005-104.169-226.707-232.214-226.707zM109.604-66.775c-9.728 0-17.606 7.692-17.606 17.187 0 226.093 188.415 410.039 419.998 410.039 231.588 0 420.004-183.947 420.004-410.039 0-9.495-7.878-17.187-17.608-17.187z"  horiz-adv-x="1024" />

    
    <glyph glyph-name="09" unicode="&#58977;" d="M402.516-127.723h300.137v947.763h-300.137v-947.763zM448.757 773.799h207.655v-855.281h-207.655v855.281zM67.821-128h299.922v485.535h-299.922v-485.535zM114.062 311.293h207.439v-393.052l-207.439 0v393.052zM736.964-127.106h299.767l0 716.741h-299.767l-0-716.741zM783.206 543.394h207.285v-624.259h-207.285v624.259zM1073.293 357.535v-485.535h300.199v485.535h-300.199zM1327.282-81.759h-207.716v393.052h207.716v-393.052z"  horiz-adv-x="1374" />

    
    <glyph glyph-name="didian" unicode="&#58890;" d="M511.20128 833.80736c-181.72416 0-329.02144-150.67136-329.02144-336.49664 0-185.83552 329.02144-560.83456 329.02144-560.83456s329.02656 374.99392 329.02656 560.83456c0 185.82528-147.33824 336.49664-329.02656 336.49664z m0-476.70784c-90.84928 0-164.5056 75.32544-164.5056 168.24832 0 92.91264 73.66144 168.24832 164.5056 168.24832 90.84416 0 164.51584-75.33568 164.51584-168.24832 0-92.92288-73.6768-168.24832-164.51584-168.24832z"  horiz-adv-x="1024" />

    
    <glyph glyph-name="weibiaoti-" unicode="&#58886;" d="M406.887417 848.529801h210.225166v-248.653421H406.887417zM617.112583 561.448124H406.887417c-20.344371 0-38.428256 18.083885-38.428256 38.428256v248.653421c0 20.344371 18.083885 38.428256 38.428256 38.428256h210.225166c20.344371 0 38.428256-18.083885 38.428256-38.428256v-248.653421c0-20.344371-18.083885-38.428256-38.428256-38.428256z m-171.79691 76.856512h133.368654V812.362031h-133.368654v-174.057395zM406.887417 165.863135h210.225166v-248.653422H406.887417zM617.112583-121.218543H406.887417c-20.344371 0-38.428256 18.083885-38.428256 38.428256v248.653422c0 20.344371 18.083885 38.428256 38.428256 38.428256h210.225166c20.344371 0 38.428256-18.083885 38.428256-38.428256v-248.653422c0-20.344371-18.083885-38.428256-38.428256-38.428256z m-171.79691 76.856512h133.368654v174.057395h-133.368654v-174.057395zM56.828609 526.410596l105.112583 182.059514 215.333863-124.32671-105.112583-182.059515zM273.518764 362.525386c-6.781457 0-13.562914 2.260486-18.083885 4.520972l-217.006623 124.32671c-18.083885 11.302428-24.865342 33.907285-13.562914 51.99117l103.98234 180.838853c9.041943 20.344371 33.907285 27.125828 51.99117 15.823399l217.006623-124.326711c9.041943-4.520971 15.8234-13.562914 18.083885-22.604856 2.260486-9.041943 2.260486-20.344371-4.520971-29.386314l-103.98234-180.838852c-9.041943-13.562914-22.604857-20.344371-33.907285-20.344371z m-165.015453 176.317881l149.192053-85.898455 67.81457 115.284769-149.192053 85.898454-67.81457-115.284768zM647.403091 184.240883l105.112582 182.059514 215.356468-124.32671-105.112583-182.059515zM863.505519 21.192053c-6.781457 0-13.562914 2.260486-18.083885 4.520971L628.415011 150.039735c-9.041943 4.520971-15.8234 13.562914-18.083885 22.604857-2.260486 9.041943-2.260486 20.344371 4.520971 29.386313l103.98234 180.838852c11.302428 18.083885 33.907285 24.865342 51.99117 13.562914l217.006623-124.326711c18.083885-11.302428 24.865342-33.907285 13.562913-51.99117l-103.982339-180.838852c-4.520971-9.041943-13.562914-15.8234-22.604857-18.083885h-11.302428zM700.750552 197.509934l149.192053-85.898455 67.814569 115.284768-149.192053 85.898455-67.814569-115.284768zM160.946578 60.298455l-105.112582 182.059514 215.333863 124.326711 105.112583-182.059514zM160.494481 21.192053c-13.562914 0-24.865342 6.781457-33.907285 18.083885l-103.982339 180.838852c-9.041943 20.344371-2.260486 42.949227 15.823399 54.251656l217.006623 124.326711c18.083885 11.302428 40.688742 4.520971 51.99117-13.562914l103.98234-180.838852c4.520971-9.041943 6.781457-18.083885 4.520971-29.386314-2.260486-9.041943-9.041943-18.083885-18.083885-22.604856L180.838852 25.713024c-6.781457-2.260486-13.562914-4.520971-20.344371-4.520971z m-51.99117 205.704194l67.81457-115.284768 149.192053 85.898455-67.81457 115.284768-149.192053-85.898455zM752.402649 400.56936l-105.112583 182.059514 215.333863 124.326711 105.112583-182.059514zM752.741722 362.525386c-13.562914 0-24.865342 6.781457-33.907285 18.083886l-103.98234 180.838852c-4.520971 9.041943-6.781457 18.083885-4.520971 29.386313 2.260486 9.041943 9.041943 18.083885 18.083885 22.604857L845.421634 737.766004c9.041943 4.520971 18.083885 6.781457 29.386313 4.520972 9.041943-2.260486 18.083885-9.041943 22.604857-18.083885l103.982339-180.838853c11.302428-18.083885 4.520971-40.688742-13.562913-51.99117l-217.006623-124.32671c-4.520971-2.260486-11.302428-4.520971-18.083885-4.520972zM700.750552 568.229581l67.814569-115.284769 149.192053 85.898455-67.814569 115.284768-149.192053-85.898454zM513.130243 767.152318c-212.485651 0-386.543046-171.796909-386.543047-386.543046s171.796909-386.543046 386.543047-386.543047 386.543046 171.796909 386.543046 386.543047S725.615894 767.152318 513.130243 767.152318z m0-556.07947c-94.940397 0-169.536424 76.856512-169.536424 169.536424s76.856512 169.536424 169.536424 169.536423 169.536424-76.856512 169.536424-169.536423-76.856512-169.536424-169.536424-169.536424z"  horiz-adv-x="1024" />

    
    <glyph glyph-name="gengduo" unicode="&#58909;" d="M121.744 504.243c-65.493 0-118.589-53.073-118.589-118.59 0-65.492 53.096-118.565 118.59-118.565s118.589 53.073 118.589 118.566c0 65.515-53.097 118.59-118.59 118.59z m378.23 0c-65.493 0-118.59-53.073-118.59-118.59 0-65.492 53.097-118.565 118.59-118.565s118.59 53.073 118.59 118.566c0 65.515-53.097 118.59-118.59 118.59z m401.871 0c-65.493 0-118.59-53.073-118.59-118.59 0-65.492 53.097-118.565 118.59-118.565s118.59 53.073 118.59 118.566c-0.002 65.515-53.097 118.59-118.59 118.59z"  horiz-adv-x="1024" />

    
    <glyph glyph-name="shaixuan" unicode="&#58887;" d="M450.235-1.171c-6.412 0-12.825 3.206-16.03 3.206-9.619 6.412-16.032 19.237-16.032 28.855V309.829L136.028 717.015c-6.412 9.618-9.618 22.443-3.206 35.268 6.413 9.618 16.031 16.03 28.856 16.03H867.04c12.825 0 22.443-6.411 28.855-16.03 6.413-9.618 3.206-22.443-3.206-32.062L610.545 309.829v-214.815c0-12.825-6.413-22.443-19.237-28.856L463.06 2.035c-3.206-3.206-6.412-3.206-12.825-3.206z"  horiz-adv-x="1024" />

    
    <glyph glyph-name="shezhi" unicode="&#58901;" d="M989.866667 504.832l-79.189334-46.08A411.648 411.648 0 0 0 918.186667 384a411.306667 411.306667 0 0 0-7.509334-74.410667L989.866667 263.168a68.266667 68.266667 0 0 0 24.917333-93.184l-68.266667-118.101333a68.266667 68.266667 0 0 0-91.818666-25.258667l-80.213334 46.762667A404.821333 404.821333 0 0 0 648.533333-1.706667V-59.733333a68.266667 68.266667 0 0 0-68.266666-68.266667h-136.533334a68.266667 68.266667 0 0 0-68.266666 68.266667v58.026666a404.821333 404.821333 0 0 0-127.317334 75.093334L170.666667 26.965333a68.266667 68.266667 0 0 0-92.16 24.576l-68.266667 118.101334a68.266667 68.266667 0 0 0 23.893333 93.525333l79.189334 46.08A411.648 411.648 0 0 0 105.813333 384a411.648 411.648 0 0 0 7.509334 74.410667L34.133333 504.832a68.266667 68.266667 0 0 0-24.917333 93.184l68.266667 118.101333a68.266667 68.266667 0 0 0 91.818666 25.258667H170.666667L249.514667 694.613333A404.821333 404.821333 0 0 0 375.466667 769.706667V827.733333a68.266667 68.266667 0 0 0 68.266666 68.266667h136.533334a68.266667 68.266667 0 0 0 68.266666-68.266667v-58.026666a404.821333 404.821333 0 0 0 127.317334-75.093334L853.333333 741.376a68.266667 68.266667 0 0 0 92.16-24.234667l68.266667-118.101333a68.266667 68.266667 0 0 0-23.893333-94.208z m-50.858667 88.746667l-34.133333 59.050666a34.133333 34.133333 0 0 1-46.08 12.629334l-94.208-54.613334A337.237333 337.237333 0 0 1 580.266667 718.506667V793.6a34.133333 34.133333 0 0 1-34.133334 34.133333h-68.266666a34.133333 34.133333 0 0 1-34.133334-34.133333v-75.093333a337.237333 337.237333 0 0 1-185.002666-108.202667l-93.866667 54.613333a34.133333 34.133333 0 0 1-46.08-12.288l-34.133333-59.050666a34.133333 34.133333 0 0 1 12.288-46.762667l94.549333-54.954667a331.776 331.776 0 0 1 0-215.722666l-94.549333-54.954667a34.133333 34.133333 0 0 1-12.288-46.762667l34.133333-59.050666a34.133333 34.133333 0 0 1 46.08-12.629334l94.208 54.613334A337.237333 337.237333 0 0 1 443.733333 49.493333V-25.6a34.133333 34.133333 0 0 1 34.133334-34.133333h68.266666a34.133333 34.133333 0 0 1 34.133334 34.133333v75.093333a337.237333 337.237333 0 0 1 185.344 108.202667l94.208-54.613333a34.133333 34.133333 0 0 1 46.08 12.288l34.133333 59.050666a34.133333 34.133333 0 0 1-12.288 46.762667l-94.549333 54.954667a331.776 331.776 0 0 1 0 215.722666l94.549333 54.954667a34.133333 34.133333 0 0 1 12.288 46.421333zM512 213.333333a170.666667 170.666667 0 1 0 170.666667 170.666667 170.666667 170.666667 0 0 0-170.666667-170.666667z m0 273.066667a102.4 102.4 0 1 1 102.4-102.4 102.4 102.4 0 0 1-102.4 102.4z"  horiz-adv-x="1024" />

    
    <glyph glyph-name="dingwei" unicode="&#59056;" d="M821.852 450.838268c0 175.832657-139.76623 318.366931-312.176952 318.366931-172.409698 0-312.175929-142.534274-312.175928-318.366931 0-5.581112 0.540306-10.975982 0.821714-16.438391-0.25685-2.697435-0.821715-5.299703-0.821714-8.067746 0-195.952904 288.164049-417.916205 288.164048-417.916205s24.012903-18.361183 48.02683 0c24.012903 18.385742 288.163025 221.962278 288.163026 417.916205 0 2.768043-0.561795 5.370311-0.819669 8.067746 0.280386 5.462408 0.818645 10.857279 0.818645 16.438391zM509.675048 328.356702c-66.319451 0-120.067586 54.826699-120.067586 122.481566 0 67.607794 53.748135 122.435517 120.067586 122.435516 66.320475 0 120.068609-54.827723 120.06861-122.435516 0-67.654866-53.748135-122.481565-120.06861-122.481566z"  horiz-adv-x="1024" />

    
    <glyph glyph-name="fanhui2" unicode="&#58923;" d="M0 319.671h780.98l-358.137-358.137 89.534-89.534 511.624 511.624-511.624 511.624-89.534-89.534 358.137-358.137h-780.226v-127.906z"  horiz-adv-x="1025" />

    
    <glyph glyph-name="yuyin" unicode="&#58883;" d="M827.247 444.925c-12.95 0.588-23.926-9.433-24.516-22.383-0.094-2.063-0.419-6.354-1.107-12.543-1.17-10.548-2.96-22.36-5.49-35.106-7.226-36.414-18.898-72.795-35.917-106.535C712.544 173.85 633.291 118.023 512 117.642c-121.29 0.381-200.547 56.208-248.217 150.716-17.019 33.74-28.693 70.12-35.92 106.535-2.529 12.747-4.317 24.558-5.487 35.106-0.688 6.19-1.014 10.48-1.109 12.543-0.588 12.95-11.564 22.971-24.514 22.383-12.952-0.589-22.973-11.565-22.383-24.517 0.514-11.339 2.631-30.394 7.447-54.655 8-40.316 20.946-80.665 40.051-118.537 51.84-102.777 138.972-167.128 265.457-175.017v-85.6h-196.14c-12.964 0-23.473-10.51-23.473-23.474 0-12.965 10.509-23.473 23.474-23.473h441.857c12.964 0 23.474 10.508 23.474 23.473 0 12.964-10.51 23.474-23.474 23.474h-198.77v85.454c127.79 7.21 215.69 71.735 267.86 175.163 19.104 37.872 32.05 78.221 40.051 118.537 4.816 24.261 6.93 43.316 7.447 54.655 0.586 12.952-9.433 23.928-22.384 24.517zM510.17 195.808c106.568 0 193.354 86.506 193.354 193.22v246.1c0 106.593-86.568 193.221-193.354 193.221-106.57 0-193.353-86.508-193.353-193.22v-246.1c0-106.596 86.567-193.221 193.353-193.221z m-146.406 439.32c0 80.694 65.675 146.274 146.407 146.274 80.82 0 146.408-65.57 146.408-146.273v-246.1c0-80.696-65.675-146.274-146.408-146.274-80.82 0-146.407 65.568-146.407 146.274v246.1z"  horiz-adv-x="1024" />

    
    <glyph glyph-name="xiaoxi" unicode="&#59033;" d="M228.352 73.856h328.832c30.976 0 30.976-0.256 45.824-11.264 14.848-11.008 184.576-126.592 184.576-126.592V73.856h7.936c90.88 0 164.352 68.48 164.352 153.728V677.632C960 762.88 886.272 832 795.648 832H228.352C137.728 832 64 762.88 64 677.632v-449.92c0-85.376 73.728-153.856 164.352-153.856z m490.624 448c38.144 0 68.864-30.848 68.864-68.864 0-38.144-30.848-68.864-68.864-68.864-38.144 0-68.992 30.848-68.992 68.864 0.128 38.016 30.848 68.864 68.992 68.864z m-206.72 0c38.144 0 68.864-30.848 68.864-68.864 0-38.144-30.848-68.864-68.864-68.864-38.144 0-68.864 30.848-68.864 68.864-0.128 38.016 30.72 68.864 68.864 68.864z m-206.848 0c38.144 0 68.864-30.848 68.864-68.864 0-38.144-30.848-68.864-68.864-68.864-38.144 0-68.864 30.848-68.864 68.864 0 38.016 30.72 68.864 68.864 68.864z"  horiz-adv-x="1024" />

    
    <glyph glyph-name="upload-pic" unicode="&#59066;" d="M64.2 27.2h50v-90.9h-50zM64.2 197.2h50v-120h-50zM499.8 831.7h120v-50h-120zM64.2 367.2h50v-120h-50zM909.8 599.8h50v-120h-50zM669.8 831.7h120v-50h-120zM839.8 831.7h120v-50h-120zM909.8 769.8h50v-120h-50zM64.2 537.2h50v-120h-50zM313.3-13.7h120v-50h-120zM483.3-13.7h120v-50h-120zM329.8 831.7h120v-50h-120zM747.7 554.3l-212.2-212.2 35.4-35.3 151.8 151.8v-522.1h50v522.1l151.7-151.8 35.4 35.3zM64.2 707.2h50v-120h-50zM64.2 781.7v-24.4h50v74.4h-50v-50zM159.8 831.7h120v-50h-120zM143.3-13.7h120v-50h-120z"  horiz-adv-x="1024" />

    
    <glyph glyph-name="tongzhi" unicode="&#58893;" d="M985.6 71.0656l-101.7344 146.4832V512.2048c0 112.64-103.68 235.4176-253.696 280.2688C623.104 852.5824 573.7984 895.7952 510.3616 895.7952c-63.4368 0-112.7424-44.032-119.808-103.3216-151.04-44.8512-253.696-166.8096-253.696-280.2688v-294.656L31.1296 64.3072a28.416 28.416 0 0 1 0-33.024c7.0656-10.1888 20.1216-16.128 34.2528-16.128h252.672c18.1248-73.6256 97.6896-128.6656 192.3072-128.6656 94.6176 0 174.1824 55.8592 192.3072 128.6656h254.72c22.1184 0 40.2432 14.4384 40.2432 33.024 0 9.3184-5.0176 16.9472-12.0832 22.8864zM510.3104 830.5664c14.08 0 26.1632-9.2672 33.2288-22.016-11.0592 0.8704-22.1696 3.4304-33.2288 3.4304-11.0592 0-22.1696-2.56-33.2288-3.4304 7.0656 12.7488 19.1488 22.016 33.2288 22.016z m0-878.8992c-50.3296 0-92.6208 27.136-108.7488 63.488h218.4704c-17.1008-37.2224-59.392-63.488-109.7216-63.488z"  horiz-adv-x="1024" />

    
    <glyph glyph-name="gengduo1" unicode="&#58931;" d="M746.343 348.077L349.508-48.769h0.002c-19.842-19.842-52.01-19.842-71.85-0.002-19.842 19.842-19.842 52.01-0.002 71.85L638.57 384.002 277.659 744.92c-19.842 19.842-19.842 52.008 0 71.85 19.84 19.842 52.008 19.842 71.85 0l396.836-396.842c19.837-19.843 19.837-52.009-0.002-71.851z"  horiz-adv-x="1024" />

    
    <glyph glyph-name="huodongshijian" unicode="&#58888;" d="M726.271 385.558L497.893 122.365c-12.142-14.02-31.872-14.02-44.013 0l-128.203 147.76c-12.141 14.016-12.141 36.78 0 50.796 12.142 14.02 31.867 14.02 44.1 0l106.156-122.396 206.235 237.84c12.141 14.016 31.872 14.016 44.012 0 12.233-14.02 12.233-36.79 0.091-50.807zM709.755 683.22c12.859 0 23.304 8.032 23.304 17.856V812.854c0 9.911-10.45 17.856-23.304 17.856-12.859 0-23.214-8.037-23.214-17.856v-111.778c0-9.911 10.355-17.856 23.214-17.856z m-395.511 0c12.859 0 23.214 8.032 23.214 17.856V812.854c0 9.911-10.355 17.856-23.214 17.856-12.858 0-23.3-8.037-23.3-17.856v-111.778c-0.004-9.911 10.442-17.856 23.3-17.856z m555.054-650.402c0-14.73-14.733-26.784-32.942-26.784h-648.71c-18.212 0-32.945 11.963-32.945 26.784V536.892H869.39l-0.092-504.074z m-32.945 738.61h-77.228v-61.868c0-23.573-21.783-42.681-48.654-42.681-26.783 0-48.57 19.108-48.57 42.68v61.87h-299.89v-61.87c0-23.572-21.783-42.68-48.566-42.68-26.788 0-48.57 19.108-48.57 42.68v61.87h-77.228c-52.045 0-94.458-37.138-94.458-82.851V20.14c0-45.712 42.322-82.851 94.458-82.851h648.71c52.049 0 94.453 37.23 94.453 82.851V688.578c0 45.713-42.404 82.85-94.457 82.85z"  horiz-adv-x="1024" />

    
    <glyph glyph-name="haoyou" unicode="&#58954;" d="M847.872 283.648c-29.184 41.984-68.608 73.216-114.176 91.648 19.968 14.336 36.864 32.768 49.152 54.784 14.336 25.6 21.504 54.784 21.504 83.968 0 92.16-71.68 166.912-159.744 166.912-12.288 0-22.528-10.24-22.528-22.528 0-12.288 10.24-22.528 22.528-22.528 62.976 0 114.176-54.784 114.176-121.856 0-67.072-51.2-121.856-114.176-121.856-12.288 0-22.528-10.24-22.528-22.528 0-12.288 6.144-22.016 22.528-22.528 113.152-3.584 205.312-97.792 205.312-218.112 0-12.288 10.24-22.528 22.528-22.528 12.288 0 22.528 10.24 22.528 22.528 1.024 55.808-15.872 109.568-47.104 154.624z m-234.496 38.4c-23.552 16.896-49.664 30.208-76.8 39.424 57.856 34.816 93.184 97.28 93.184 165.376 0 106.496-87.04 193.024-193.536 193.024-107.008 0-193.536-86.528-193.536-193.024 0-36.352 10.24-71.68 29.184-102.4 16.384-26.112 38.4-47.616 64.512-63.488-27.648-9.728-54.272-23.04-78.336-39.936-26.112-18.432-49.152-40.96-68.608-66.56-39.936-53.248-61.44-117.248-61.44-183.808 0-12.288 10.24-22.528 22.528-22.528 12.288 0 22.528 10.24 22.528 22.528 0 69.632 27.136 135.168 76.8 184.832 49.152 49.664 114.688 76.8 183.808 76.8 2.56 0 4.608 0 7.168 0.512l2.048 0.512c67.584-1.536 130.56-28.672 179.2-76.8 49.664-49.664 76.8-115.2 76.8-184.832 0-12.288 10.24-22.528 22.528-22.528 12.288 0 22.528 10.24 22.528 22.528 0 67.072-20.992 130.56-61.44 183.808-19.456 25.6-42.496 48.128-69.12 66.56zM436.224 674.816c81.92 0 148.48-66.56 148.48-147.968 0-81.408-66.56-147.968-148.48-147.968s-148.48 66.56-148.48 147.968c0 81.408 66.56 147.968 148.48 147.968zM252.416 534.528c0-97.28 82.944-176.64 184.832-176.64 101.888 0 184.832 78.848 184.832 176.64 0 97.28-82.944 176.64-184.832 176.64-102.4 0-184.832-78.848-184.832-176.64zM145.92 48.128l573.952 1.024s-19.456 250.368-178.688 294.4C357.376 394.24 163.84 320 145.92 48.128z m476.672 610.816s-3.072-10.24 14.848-26.624c24.576-22.528 63.488-123.392 6.656-211.456-8.192-12.8-31.744-35.84-31.744-51.2 0-12.8 4.608-14.336 36.352-34.816 26.112-16.896 117.248-89.088 124.928-224.768l99.328-3.584s-11.776 206.336-152.064 255.488c0 0-17.92 14.336 7.168 39.424 25.6 24.576 110.592 238.592-105.472 257.536z"  horiz-adv-x="1024" />

    
    <glyph glyph-name="meikelaishouyinsousuohui" unicode="&#58880;" d="M948.4 1.5L789.6 160.29999999999995c61.5 73.4 95.2 166.1 95.1 261.8 0 225.9-184.1 409.7-410.3 409.7S64.2 648 64.2 422.1c0-225.9 184.1-409.7 410.3-409.7 99.7 0 191.2 35.8 262.4 95.1l158.8-158.8c7-7 16.5-11 26.4-11 9.9 0 19.4 3.9 26.4 11 7 7 10.9 16.5 10.9 26.4-0.1 9.9-4 19.4-11 26.4zM474.5 87c-185.1 0-335.7 150.3-335.7 335.1s150.6 335.1 335.7 335.1 335.7-150.3 335.7-335.1C810.1 237.29999999999995 659.6 87 474.5 87z"  horiz-adv-x="1024" />

    
    <glyph glyph-name="arrLeft-fill" unicode="&#59258;" d="M234.8888416290282 518.5219315546517l279.65492248535145-279.6549224853517 278.8075160980226 278.80751609802246z"  horiz-adv-x="1024" />

    
    <glyph glyph-name="redianjujiao" unicode="&#58941;" d="M509.6827977225185 166.16193895787c-121.66500091552734 0-220.15594225376844 98.49026240408422-220.15594225376844 220.15526331961155S388.01779680699116 606.47314453125 509.6827977225185 606.47314453125s220.15526331961155-98.4909413382411 220.15526331961155-220.15594225376844c0-8.110547438263893 6.9522857666015625-16.221773810684677 16.222452744841576-16.221773810684677s16.221773810684677 6.9522857666015625 16.221773810684677 16.221773810684677c0 139.04571533203125-112.39551287144423 251.44122820347548-251.44122820347548 251.44122820347548S259.4005101248622 525.3629176095128 259.4005101248622 386.3172022774815s112.39483393728733-251.44054926931858 251.44054926931858-251.44054926931858c8.111226372420788 0 16.222452744841576 6.9522857666015625 16.222452744841576 16.221773810684677s-8.111226372420788 15.06351213902235-17.380714416503906 15.06351213902235zM509.6827977225185 72.30608110874891c-173.80714416503906 0-314.0118001028896 140.2039770036936-314.0118001028896 314.0111211687326S335.87565355747944 700.3290023803711 509.6827977225185 700.3290023803711s314.0111211687326-140.20465593785048 314.0111211687326-314.0118001028896c0-8.110547438263893 6.9522857666015625-16.221773810684677 16.222452744841576-16.221773810684677s16.221773810684677 6.9522857666015625 16.221773810684677 16.221773810684677C856.1381454467773 577.5050608590245 702.0289179757237 731.6142883300781 510.8410593941808 731.6142883300781S165.5446522757411 577.5050608590245 165.5446522757411 386.3172022774815s154.1085485368967-345.2964071184397 345.2964071184397-345.2964071184397c8.111226372420788 0 16.222452744841576 6.9522857666015625 16.222452744841576 16.221773810684677s-8.111226372420788 15.06351213902235-17.380714416503906 15.06351213902235zM849.1858596801757 288.9852015450597l-332.5507761910557 111.236572265625c-12.746309861540796 4.635083489120007-24.33300018310547-8.110547438263893-19.698595628142357-19.697916693985466l111.236572265625-332.5507761910557c4.635083489120007-12.746309861540796 22.015797905623913-15.06351213902235 28.968083672225475-2.3178812116384506l72.9990005493164 142.521858215332 142.521858215332 72.9990005493164c10.428428649902342 5.794024094939233 9.269488044083118 23.174738511443138-3.4761428833007812 27.80914306640625z"  horiz-adv-x="1025" />

    
    <glyph glyph-name="jianyi" unicode="&#58911;" d="M341.333333 244.053333c-6.826667 0-10.24 0-17.066666 3.413334-98.986667 61.44-160.426667 174.08-160.426667 300.373333C163.84 738.986667 320.853333 896 512 896s348.16-157.013333 348.16-348.16c0-109.226667-54.613333-208.213333-153.6-276.48-13.653333-10.24-34.133333-6.826667-44.373333 6.826667-10.24 13.653333-6.826667 34.133333 6.826666 44.373333 81.92 58.026667 126.293333 136.533333 126.293334 225.28 0 157.013333-126.293333 283.306667-283.306667 283.306667s-283.306667-126.293333-283.306667-283.306667c0-105.813333 47.786667-197.973333 129.706667-245.76 13.653333-10.24 20.48-27.306667 10.24-44.373333-6.826667-10.24-17.066667-13.653333-27.306667-13.653334zM641.706667-39.253333h-262.826667c-40.96 0-75.093333 34.133333-75.093333 75.093333v238.933333c0 17.066667 13.653333 30.72 30.72 30.72s30.72-13.653333 30.72-30.72v-238.933333c0-6.826667 6.826667-10.24 10.24-10.24h262.826666c6.826667 0 10.24 6.826667 10.24 10.24l3.413334 262.826667c0 17.066667 13.653333 30.72 30.72 30.72s30.72-13.653333 30.72-30.72l-3.413334-262.826667c10.24-40.96-23.893333-75.093333-68.266666-75.093333zM675.84 131.413333h-324.266667c-17.066667 0-30.72 13.653333-30.72 30.72s13.653333 30.72 30.72 30.72h324.266667c17.066667 0 30.72-13.653333 30.72-30.72s-13.653333-30.72-30.72-30.72zM641.706667-128h-259.413334c-17.066667 0-30.72 13.653333-30.72 30.72s13.653333 30.72 30.72 30.72h259.413334c17.066667 0 30.72-13.653333 30.72-30.72s-13.653333-30.72-30.72-30.72z"  horiz-adv-x="1024" />

    
    <glyph glyph-name="sanx-up" unicode="&#58881;" d="M377.4780684453485 106.8888416290281l279.6549224853515 279.65492248535156-278.8075160980225 278.80751609802246z"  horiz-adv-x="1024" />

    
    <glyph glyph-name="arrRight-fill" unicode="&#58882;" d="M646.52193155 661.11115837l-279.65492248-279.65492248 278.8075161-278.8075161z"  horiz-adv-x="1024" />

    


  </font>
</defs>
</svg>
